# xmcd
#
# Track frame offsets:
# 150
# 15464
# 29660
# 47896
# 62991
# 77958
# 96197
# 114821
# 128983
#
# Disc length: 1966 seconds
#
# Revision: 0
# Processed by: cddbd v1.5.2PL0 Copyright (c) Steve Scherf et al.
# Submitted via: Audion 3.0.2 (http://www.panic.com/audion/)
#
DISCID=7507ac09
DTITLE=Stereo Suite - Stereo Suite
DYEAR=1900
DGENRE=
TTITLE0=Dont Scream
TTITLE1=Dreamer
TTITLE2=From Here
TTITLE3=Better
TTITLE4=Lucky Day
TTITLE5=Down
TTITLE6=Everything's Alright
TTITLE7=Fee It
TTITLE8=Don't Look Back
EXTD=
EXTT0=
EXTT1=
EXTT2=
EXTT3=
EXTT4=
EXTT5=
EXTT6=
EXTT7=
EXTT8=
PLAYORDER=
